2<svg id="visual" viewBox="0 0 960 540" width="960" height="540" xmlns="http://www.w3.org/2000/svg" xmlns:xlink="http://www.w3.org/1999/xlink" version="1.1"><path d="M0 455L22.8 438C45.7 421 91.3 387 137 379.5C182.7 372 228.3 391 274 393.7C319.7 396.3 365.3 382.7 411.2 391C457 399.3 503 429.7 548.8 443.2C594.7 456.7 640.3 453.3 686 434.2C731.7 415 777.3 380 823 370.2C868.7 360.3 914.3 375.7 937.2 383.3L960 391L960 541L937.2 541C914.3 541 868.7 541 823 541C777.3 541 731.7 541 686 541C640.3 541 594.7 541 548.8 541C503 541 457 541 411.2 541C365.3 541 319.7 541 274 541C228.3 541 182.7 541 137 541C91.3 541 45.7 541 22.8 541L0 541Z" fill="#152012" stroke-linecap="round" stroke-linejoin="miter"></path></svg>