<svg id="visual" viewBox="0 0 960 540" width="960" height="540" xmlns="http://www.w3.org/2000/svg" xmlns:xlink="http://www.w3.org/1999/xlink" version="1.1"><path d="M0 85L22.8 89C45.7 93 91.3 101 137 100.3C182.7 99.7 228.3 90.3 274 96C319.7 101.7 365.3 122.3 411.2 126C457 129.7 503 116.3 548.8 110.8C594.7 105.3 640.3 107.7 686 114C731.7 120.3 777.3 130.7 823 126C868.7 121.3 914.3 101.7 937.2 91.8L960 82L960 0L937.2 0C914.3 0 868.7 0 823 0C777.3 0 731.7 0 686 0C640.3 0 594.7 0 548.8 0C503 0 457 0 411.2 0C365.3 0 319.7 0 274 0C228.3 0 182.7 0 137 0C91.3 0 45.7 0 22.8 0L0 0Z" fill="#152012" stroke-linecap="round" stroke-linejoin="miter"></path></svg>