<svg width="262" height="113" fill="none" xmlns="http://www.w3.org/2000/svg"><g filter="url(#a)"><path d="M0 0h246s-2.799 6.24-3 10.5c-.241 5.11 3 12.75 3 12.75s.946 6.534 1 10.75c.063 4.897-1 7.603-1 12.5s1.008 7.603 1 12.5c-.008 4.8-.172 7.522-1 12.25-.785 4.479-2.689 6.028-1 10.25 4 10 1 13.5 1 13.5s-7.08 1.172-14.5 0-16.026-6.752-23.5-6c-9.133.92-16.801 6.135-25.5 6-7.928-.123-16-2-16-2-31-9-28.755 3.999-47 2-5.49-.602-8.477-2.029-14-2-5.33.028-8.171 2.084-13.5 2-8.528-.135-12.47-6-21-6-26 0-18.398 6.945-30.5 6-8.69-.678-12.788-6.294-21.5-6-7.777.262-19 6-19 6V0Z" fill="#2B2014"/></g><defs><filter id="a" x="-10.8" y="-8.8" width="272.68" height="121.121" filterUnits="userSpaceOnUse" color-interpolation-filters="sRGB"><feFlood flood-opacity="0" result="BackgroundImageFix"/><feColorMatrix in="SourceAlpha" values="0 0 0 0 0 0 0 0 0 0 0 0 0 0 0 0 0 0 127 0" result="hardAlpha"/><feOffset dx="2" dy="4"/><feGaussianBlur stdDeviation="6.4"/><feComposite in2="hardAlpha" operator="out"/><feColorMatrix values="0 0 0 0 0 0 0 0 0 0 0 0 0 0 0 0 0 0 0.15 0"/><feBlend in2="BackgroundImageFix" result="effect1_dropShadow_28_152"/><feBlend in="SourceGraphic" in2="effect1_dropShadow_28_152" result="shape"/></filter></defs></svg>