<svg id="visual" viewBox="0 0 300 200" width="300" height="200" xmlns="http://www.w3.org/2000/svg" xmlns:xlink="http://www.w3.org/1999/xlink" version="1.1"><path d="M0 51L7.2 53.3C14.3 55.7 28.7 60.3 43 56.7C57.3 53 71.7 41 86 39.7C100.3 38.3 114.7 47.7 128.8 50.7C143 53.7 157 50.3 171.2 47.5C185.3 44.7 199.7 42.3 214 44.3C228.3 46.3 242.7 52.7 257 52C271.3 51.3 285.7 43.7 292.8 39.8L300 36L300 0L292.8 0C285.7 0 271.3 0 257 0C242.7 0 228.3 0 214 0C199.7 0 185.3 0 171.2 0C157 0 143 0 128.8 0C114.7 0 100.3 0 86 0C71.7 0 57.3 0 43 0C28.7 0 14.3 0 7.2 0L0 0Z" fill="#2b2014" stroke-linecap="round" stroke-linejoin="miter"></path></svg>